        <svg id="background" viewBox="0 0 400 1000">
            <defs>
            <linearGradient id="redshade" gradientTransform="rotate(30)">
            <stop style="stop-color:rgb(255,0,0);stop-opacity:0" offset="0"/>
            <stop style="stop-color:rgb(255,0,0);stop-opacity:1" offset="1"/>
        </linearGradient>
		    <linearGradient id="greenshade" gradientTransform="rotate(190)">
            <stop style="stop-color:rgb(0,255,0);stop-opacity:0" offset="0.1"/>
            <stop style="stop-color:rgb(0,255,0);stop-opacity:1" offset="0.7"/>
        </linearGradient>
		    <linearGradient id="blueshade" gradientTransform="rotate(300)">
            <stop style="stop-color:rgb(0,0,255);stop-opacity:0" offset="0"/>
            <stop style="stop-color:rgb(0,0,255);stop-opacity:1" offset="1"/>
        </linearGradient>
        <linearGradient id="gradient" gradientTransform="rotate(90)">
            <stop style="stop-color:var(--color1);" offset="0"/>
            <stop style="stop-color:var(--color2);" offset="1"/>
        </linearGradient>
        <linearGradient id="galacticfont" gradientTransform="rotate(90)"><stop stop-color="#0D0D0D" offset="0.2"/><stop stop-color="#FFC000" offset="0.8"/><stop stop-color="#FFFF00" offset="1"/></linearGradient>
        <pattern id="checkerboard" x="0" y="0" width="20" height="20" patternUnits="userSpaceOnUse">
            <rect style="fill:var(--color1);" class="checker" x="0" y="0" width="20" height="20"></rect>
            <rect style="fill:var(--color2);" class="checker" x="0" y="0" width="10" height="10"></rect>
            <rect style="fill:var(--color2);" class="checker" x="10" y="10" width="10" height="10"></rect>
        </pattern>
        <pattern id="horizontal" x="0" y="0" width="20" height="20" patternUnits="userSpaceOnUse">
            <rect style="fill:var(--color1);" class="checker" x="0" y="0" width="20" height="10"></rect>
            <rect style="fill:var(--color2);" class="checker" x="0" y="10" width="20" height="10"></rect>
        </pattern>
        <pattern id="vertical" x="0" y="0" width="20" height="20" patternUnits="userSpaceOnUse">
            <rect style="fill:var(--color1);" class="checker" x="0" y="0" width="10" height="20"></rect>
            <rect style="fill:var(--color2);" class="checker" x="10" y="0" width="10" height="20"></rect>
        </pattern>
                <clipPath id="background1clip">
                    <path d="M0 0L200 0L200 1000L0 1000Z" fill="white"/>
                </clipPath>
                <pattern id="background1a" x="0" y="0" width="16" height="10" patternUnits="userSpaceOnUse">
                    <circle cx="0" cy="0" r="4" fill="#FFFFFFAA"/>
                    <circle cx="0" cy="10" r="4" fill="#FFFFFFAA"/>
                    <circle cx="8" cy="5" r="4" fill="#FFFFFFAA"/>
                    <circle cx="16" cy="0" r="4" fill="#FFFFFFAA"/>
                    <circle cx="16" cy="10" r="4" fill="#FFFFFFAA"/>
                </pattern>
                <g id="background1b">
                    <path d="M193 567C203 552 210 536 206 526C282 526 307 519 357 502C398 486 433 451 470 426C480 419 507 452 499 462C465 498 434 532 383 548C312 566 268 559 193 567ZM142 162L151 177L167 184L151 203C152 223 146 243 137 260C143 291 179 306 211 301C241 297 258 255 245 239C227 220 200 188 192 155C177 163 161 163 142 162ZM144 203C145 223 140 243 132 259C126 301 116 343 102 385L77 380C85 330 92 279 84 226L92 195L109 192L114 202L144 203ZM368 372L368 358L403 352L410 336L442 331L452 317L478 314L492 297C567 295 639 296 713 318C690 345 665 337 590 340L604 413C576 418 548 419 520 417L523 340L368 372ZM671 365C675 394 680 425 672 452C653 491 634 523 598 549L616 569C659 534 693 512 706 466C711 433 706 400 698 369C695 363 670 360 671 365ZM827 748L818 716L776 716L780 747C794 756 811 756 827 748ZM811 678L805 655L765 664L770 693L811 678ZM800 631L798 606L765 615L768 636L800 631Z" fill="url(#background1a)" stroke="none"/>
			        <path d="M162 143C161 108 97 123 74 109C68 105 65 100 65 89C60 110 59 121 69 132C90 150 162 162 162 143ZM165 110C164 81 103 93 80 81C75 78 72 74 72 65C68 82 66 92 76 100C96 115 165 125 165 110ZM125 183C110 163 87 154 63 149L64 168L82 165L96 170L88 172L83 166L78 171L67 173L70 178L80 176L83 170L85 176L80 186L79 196L73 188L67 212C73 209 79 207 82 216L90 191L110 187L116 197L129 197L125 183ZM186 42L189 18C190 11 181 9 180 17L177 39L186 42ZM175 38L177 14C178 8 169 6 168 14L166 36L175 38ZM162 34L163 12C164 6 152 3 150 11L149 32L162 34ZM144 31L146 11C147 4 134 2 133 10L131 30L144 31ZM128 31L129 11C130 4 118 2 116 10L115 31L128 31ZM110 32L111 12C112 6 103 3 101 11L100 33L110 32ZM97 33L98 14C99 7 91 5 89 13L89 36L97 33ZM86 37L87 17C87 11 81 8 80 16L79 39L86 37ZM184 65L184 50C151 36 115 38 80 46L80 63C109 55 148 52 184 65ZM135 187C126 175 122 161 108 152C125 157 138 165 147 182L159 184L147 200L134 199L144 195L151 186L143 185L135 187ZM121 514L188 515C195 515 195 498 187 498L122 497L121 514ZM123 492L192 494C200 493 199 477 191 477L126 475L123 492ZM127 471L197 472C205 472 204 455 196 455L130 454L127 471ZM134 445L204 447C212 446 211 430 203 430L139 428L134 445ZM142 422L212 423C220 423 219 407 211 407L148 405L142 422ZM153 399L221 400C229 400 229 383 220 383L161 382L153 399ZM167 373L235 375C243 375 242 358 234 358L177 356L167 373ZM184 352L250 353C258 353 257 336 249 336L196 335L184 352ZM206 330L273 331C280 331 280 314 271 314L222 312L206 330ZM233 307L302 309C310 309 309 292 301 292L248 292L233 307ZM257 285L326 286C333 286 333 270 324 270L277 269L257 285ZM287 265L354 266C362 266 362 249 353 249L308 248L287 265ZM320 242L392 244C400 244 400 227 391 227L339 226L320 242ZM343 221L435 222C443 222 443 205 434 205L358 203L343 221ZM366 195L481 197C489 197 488 180 480 180L379 179L366 195ZM387 173L533 169C541 168 539 151 531 152L404 157L387 173ZM413 147L585 134C593 133 591 116 582 117L432 130L413 147ZM442 124L598 105C606 104 603 88 595 89L464 104L442 124ZM471 96L604 75C611 73 607 57 599 59L474 79L471 96ZM473 70L600 47C608 46 604 29 596 31L470 55C472 62 472 62 473 70ZM198 515L265 516C273 516 272 499 264 499L200 498L198 515ZM206 495L276 496C284 496 283 479 275 479L208 478L206 495ZM212 471L284 472C292 472 292 455 283 455L214 453L212 471ZM221 443L294 445C302 445 301 428 292 428L223 426L221 443ZM236 421L312 422C320 422 319 405 310 405L238 404L236 421ZM250 397L330 398C339 398 339 381 329 381L252 380L250 397ZM270 370L353 372C363 372 362 355 352 355L272 353L270 370ZM299 345L394 346C405 346 404 329 393 329L302 328L299 345ZM329 323L433 324C444 324 443 307 431 307L332 306L329 323ZM359 301L472 308C485 309 485 292 471 291L363 284L359 301ZM394 280L519 290C533 291 533 274 518 273L398 263L394 280ZM423 263L594 276C613 277 613 260 593 259L428 246L423 263ZM461 243L664 255C687 256 686 239 662 238L466 226L461 243ZM495 224L715 233C740 234 738 217 712 216L501 207L495 224ZM520 203L759 209C785 209 784 192 755 192L526 186L520 203ZM558 181L779 182C803 182 801 165 775 165L563 163L558 181ZM585 155L791 157C814 156 812 140 787 140L590 138L585 155ZM608 124L799 125C820 125 818 108 795 109L612 107L608 124ZM614 93L803 94C824 94 822 77 799 77L618 76L614 93ZM614 62L797 63C817 63 816 46 794 46L618 45L614 62ZM190 150C180 154 170 156 160 157C170 147 167 133 161 125C170 115 172 100 161 91C141 79 105 86 81 76L80 68C116 61 145 61 183 71L190 150ZM139 283C156 305 175 311 205 313C148 379 126 414 113 522C138 522 164 518 188 523C205 529 197 551 189 571L135 695L135 719L123 732L124 765L105 758L102 784C67 788 34 790 0 778C37 755 72 735 91 697L96 624C107 602 111 577 103 555C86 551 78 536 76 517C73 478 84 432 95 390L105 392C122 357 133 322 139 283ZM799 632C798 639 799 647 803 654L769 663L771 635L799 632ZM818 716C811 705 808 691 811 679L770 693C774 700 777 707 776 717L818 716ZM796 605L785 500L781 428C781 383 756 348 714 326C684 345 683 343 617 346L663 361C681 355 693 356 704 367C734 372 754 402 760 440C765 498 761 558 766 614L796 605ZM265 573C262 630 272 682 300 736C303 748 284 746 276 750C286 759 295 774 286 784C248 791 213 789 176 781L235 745C242 721 242 695 234 674C219 665 207 642 208 624L189 587L194 572C216 570 242 565 265 573ZM282 570C352 575 422 574 491 548C508 623 496 697 450 749L393 778C420 792 461 789 497 784C497 774 487 762 496 752C502 748 510 752 516 752C515 704 544 677 568 636C569 594 582 586 607 570L587 547C618 527 637 507 654 476C624 503 565 551 563 530L597 479C545 523 483 549 485 489C411 563 371 561 282 570ZM657 779C694 792 736 790 775 782L767 755L776 745L764 665C767 649 766 632 765 617L732 542L735 469C735 440 724 418 708 392C716 436 714 462 699 494C679 524 653 550 618 573C632 600 654 616 688 625L720 688C730 706 728 727 720 744L657 779ZM461 55C468 70 472 91 458 100C407 136 369 173 337 218C308 241 278 266 248 282C260 264 258 254 257 242C248 234 233 219 225 208C290 155 357 79 461 55Z" stroke="none" fill="#FFFFFFAA"/>
                    <animateMotion dur="20s" repeatCount="indefinite" path="m-320 0l280 0z"/>
                </g>
                <g id="background1c" clip-path="url(#background1clip">
                    <use href="#background1b"/>
                </g>
                <g id="background1">
			<path d="M0 0L400 0L400 1000L0 1000Z" fill="#FFF"/>
			<path d="M0 0L400 0L400 1000L0 1000Z" fill="url('#redshade')"/>
			<path d="M0 0L400 0L400 1000L0 1000Z" fill="url('#greenshade')"/>
			<path d="M0 0L400 0L400 1000L0 1000Z" fill="url('#blueshade')"/>
                    <use href="#background1c"/>
                    <use href="#background1c" transform="scale(-1,1)" transform-origin="center"/>
                </g>
            </defs>
            <g id="backgroundgroup"><use href="#background1"/></g>
        </svg>
