        <svg id="background" viewBox="0 0 400 1000">
            <defs>
            <linearGradient id="rainbow" gradientTransform="rotate(90)">
            <stop stop-color="#FF0000" offset="0"/>
            <stop stop-color="#DD6600" offset="0.17"/>
            <stop stop-color="#999900" offset="0.33"/>
            <stop stop-color="#00AA00" offset="0.5"/>
            <stop stop-color="#7777FF" offset="0.63"/>
            <stop stop-color="#BB00BB" offset="0.87"/>
            <stop stop-color="#FF0000" offset="1"/>
        </linearGradient>
        <linearGradient id="gradient" gradientTransform="rotate(90)">
            <stop style="stop-color:var(--color1);" offset="0"/>
            <stop style="stop-color:var(--color2);" offset="1"/>
        </linearGradient>
        <linearGradient id="galacticfont" gradientTransform="rotate(90)"><stop stop-color="#0D0D0D" offset="0.2"/><stop stop-color="#FFC000" offset="0.8"/><stop stop-color="#FFFF00" offset="1"/></linearGradient>
        <pattern id="checkerboard" x="0" y="0" width="20" height="20" patternUnits="userSpaceOnUse">
            <rect style="fill:var(--color1);" class="checker" x="0" y="0" width="20" height="20"></rect>
            <rect style="fill:var(--color2);" class="checker" x="0" y="0" width="10" height="10"></rect>
            <rect style="fill:var(--color2);" class="checker" x="10" y="10" width="10" height="10"></rect>
        </pattern>
        <pattern id="horizontal" x="0" y="0" width="20" height="20" patternUnits="userSpaceOnUse">
            <rect style="fill:var(--color1);" class="checker" x="0" y="0" width="20" height="10"></rect>
            <rect style="fill:var(--color2);" class="checker" x="0" y="10" width="20" height="10"></rect>
        </pattern>
        <pattern id="vertical" x="0" y="0" width="20" height="20" patternUnits="userSpaceOnUse">
            <rect style="fill:var(--color1);" class="checker" x="0" y="0" width="10" height="20"></rect>
            <rect style="fill:var(--color2);" class="checker" x="10" y="0" width="10" height="20"></rect>
        </pattern>
                <clipPath id="background0clip">
                    <path d="M179 177L379 177L279 4Z" fill="white"/>
                </clipPath>
                <symbol id="background0a">
                    <path d="M58 69C58 91 58 113 58 134L103 180L59 227C59 249 59 271 58 292L123 292L169 246L215 290L281 291L280 224L236 178L282 133C282 111 281 90 281 68L216 68L170 115L124 69L58 69Z" fill="#FFE699" stroke="none"/>
                    <path d="M138 96L145 104L93 155L85 148L138 96ZM202 263L195 256L247 204L255 211L202 263ZM84 211L92 204L144 257L137 264L84 211ZM256 148L248 155L196 102L203 95L256 148Z" fill="#C55A11" stroke="none"/>
                    <path d="M202 150L189 162C185 166 193 174 195 168L202 150ZM202 151L196 169C194 175 202 175 202 169C202 163 202 157 202 151ZM203 152L209 170C211 176 203 176 203 170C203 164 203 158 203 152ZM201 149L189 161C185 166 176 157 182 155L201 149ZM200 148L181 155C175 157 175 149 181 148C188 148 194 148 200 148ZM199 148L181 141C175 139 174 148 181 148C187 148 193 148 199 148ZM252 100L264 89C268 85 260 76 258 82L252 100ZM251 99L257 81C260 75 251 75 251 81C251 87 251 93 251 99ZM251 99L244 80C242 74 250 74 250 80C250 86 250 93 251 99ZM252 101L264 89C268 85 277 93 270 95L252 101ZM253 102L272 96C277 93 278 102 272 102C266 102 259 102 253 102ZM254 103L272 109C278 111 278 103 272 103C266 103 260 103 254 103ZM249 259L261 272C265 276 273 268 267 266L249 259ZM250 259L268 265C274 268 274 259 268 259C262 259 256 259 250 259ZM251 258L269 252C275 250 275 258 269 258C263 258 257 258 251 258ZM248 260L261 272C265 276 257 285 254 278L248 260ZM248 261L254 279C256 285 248 286 248 280C248 273 248 267 248 261ZM247 262L241 280C239 286 247 286 247 280C247 274 247 268 247 262ZM138 209L151 197C155 193 147 185 144 191L138 209ZM138 208L144 190C147 184 138 184 138 190C138 196 138 202 138 208ZM137 208L131 189C128 183 137 183 137 189C137 195 137 201 137 208ZM139 210L151 198C155 194 164 202 157 204L139 210ZM140 211L158 204C164 202 165 211 158 211C152 211 146 211 140 211ZM141 211L159 218C165 220 165 212 159 211C153 211 147 211 141 211ZM88 259L76 271C72 275 80 283 82 277L88 259ZM89 260L82 278C80 284 88 284 89 278C89 272 89 266 89 260ZM89 260L96 279C98 285 90 285 89 279C89 273 89 267 89 260ZM87 258L75 270C72 274 63 266 69 264L87 258ZM86 257L68 264C62 266 62 257 68 257C74 257 80 257 86 257ZM86 257L67 250C62 248 61 256 67 257C73 257 80 257 86 257ZM213 237L221 237L221 245L213 245ZM199 252L206 252L206 260L199 260ZM243 208L250 208L250 215L243 215ZM228 223L235 223L235 230L228 230ZM103 223L110 223L110 230L103 230ZM88 208L95 208L95 215L88 215ZM132 253L140 253L140 260L132 260ZM117 238L125 238L125 245L117 245ZM200 209L188 197C184 193 175 201 182 203L200 209ZM199 210L180 204C174 201 174 210 180 210C187 210 193 210 199 210ZM198 211L180 217C174 219 173 211 180 211C186 211 192 211 198 211ZM201 209L188 197C184 193 192 184 194 190L201 209ZM201 208L195 189C193 183 201 183 201 189C201 195 201 201 201 208ZM202 207L208 189C210 183 202 182 202 188C202 195 202 201 202 207ZM229 129L237 129L237 136L229 136ZM245 144L252 144L252 151L245 151ZM200 99L207 99L207 106L200 106ZM215 114L222 114L222 121L215 121ZM119 114L126 114L126 122L119 122ZM134 99L141 99L141 107L134 107ZM89 144L97 144L97 151L89 151ZM105 129L112 129L112 136L105 136ZM140 150L152 162C156 166 165 158 158 156L140 150ZM141 149L159 156C165 158 165 149 159 149C153 149 147 149 141 149ZM142 149L160 142C166 140 166 148 160 149C154 149 148 149 142 149ZM139 151L152 162C156 166 148 175 145 169L139 151ZM138 152L145 170C148 176 139 176 139 170C139 164 138 158 138 152ZM138 152L132 171C129 177 138 177 138 171C138 165 138 158 138 152ZM91 100L79 87C75 83 66 91 73 94L91 100ZM90 100L72 94C66 92 65 100 71 100C77 100 84 100 90 100ZM89 101L71 107C65 110 65 101 71 101C77 101 83 101 89 101ZM92 99L79 87C75 83 83 75 85 81L92 99ZM92 98L86 80C83 74 92 74 92 80C92 86 92 92 92 98ZM93 97L99 79C102 73 93 73 93 79C93 85 93 91 93 97Z" fill="#FFFFFF" stroke="none"/>
                    <path d="M100 91C97 94 95 99 91 99C91 104 85 105 83 108C84 104 87 103 87 95C96 95 96 93 100 91ZM92 100C92 102 91 103 89 104C91 106 94 106 97 104C99 102 98 99 97 98C95 99 94 100 92 100ZM193 141C196 144 201 145 201 149C205 150 207 155 209 158C205 156 205 154 197 153C197 145 194 145 193 141ZM202 148C203 149 205 150 206 151C208 149 208 147 206 144C204 142 201 142 200 144C201 145 202 147 202 148ZM147 218C144 215 139 214 139 210C134 210 133 204 130 201C134 203 135 205 143 206C143 214 146 214 147 218ZM138 211C136 210 135 209 134 208C132 210 132 213 134 215C136 217 139 217 140 215C139 214 138 212 138 211ZM80 250C82 253 88 254 88 258C92 258 94 264 96 267C92 265 92 263 84 262C84 254 81 254 80 250ZM89 257C90 258 92 259 93 260C95 258 95 255 93 253C91 251 88 251 86 253C87 254 88 256 89 257ZM209 201C206 204 204 209 200 209C200 213 194 215 191 217C193 213 196 213 196 205C205 205 204 202 209 201ZM201 210C201 211 200 213 198 214C200 216 203 216 206 214C207 212 207 209 205 207C204 208 203 209 201 210ZM240 268C243 265 245 260 249 260C249 256 254 254 257 251C256 256 253 256 253 264C244 264 245 267 240 268ZM248 259C248 258 249 256 251 255C249 253 246 253 243 255C242 257 242 260 244 262C245 260 246 259 248 259ZM260 109C257 106 252 105 252 101C248 101 246 95 244 92C248 94 248 97 256 97C256 105 259 105 260 109ZM251 102C250 101 248 100 247 99C245 101 245 104 247 106C249 108 252 108 254 106C253 105 252 103 251 102ZM131 158C134 156 136 150 140 150C140 146 146 145 148 142C147 146 144 146 144 154C135 154 135 157 131 158ZM139 149C139 148 140 146 141 145C139 143 137 143 134 145C132 147 133 150 134 152C136 151 137 150 139 149Z" fill="#385723" stroke="none"/>
                    <path d="M267 234C268 233 267 231 267 229C266 228 265 227 263 226C265 222 270 225 272 227C277 232 274 239 271 243C264 250 250 246 240 247C244 244 247 241 245 238C244 236 241 235 240 235C238 235 238 236 238 237C238 238 239 239 240 239C243 238 246 241 241 244C235 248 229 251 224 256C221 258 218 262 217 266C216 270 217 275 220 279C224 282 228 283 231 281C235 280 237 275 233 272C231 269 229 269 227 270C226 271 225 272 226 274C227 275 228 276 230 275C231 275 231 274 232 273C234 275 234 279 230 280C227 281 224 280 221 277C218 275 218 270 218 267C219 264 220 262 222 260C224 259 228 261 231 259C231 259 231 258 230 257C228 256 227 256 226 256C229 253 231 252 235 252C237 253 239 255 240 255C242 255 243 254 242 252C242 252 239 250 237 249C239 249 241 249 244 249C249 249 255 250 260 249C264 249 269 248 273 244C278 238 277 231 273 226C271 223 265 221 262 225C261 227 261 230 262 232C263 234 265 235 267 234ZM113 192C112 191 109 191 108 192C107 192 106 193 105 195C101 193 104 188 106 186C111 182 118 184 122 188C129 194 125 208 126 218C123 214 120 212 117 213C115 215 114 217 114 219C114 220 114 221 116 221C117 220 118 219 118 218C117 215 120 213 123 217C127 223 130 230 135 235C137 238 141 240 145 241C149 243 155 242 158 238C161 235 162 231 161 227C159 223 154 222 151 225C149 227 148 230 149 231C150 233 151 233 153 232C154 232 155 230 154 229C154 227 153 227 152 227C154 224 158 225 159 228C160 232 159 235 156 238C154 240 149 241 146 240C143 239 141 239 139 236C138 235 140 230 138 228C138 227 137 228 136 229C135 230 135 231 135 233C132 230 131 228 131 224C132 221 134 220 134 218C134 216 133 216 131 216C130 217 129 219 128 222C128 219 128 217 128 215C128 209 129 204 128 198C128 194 127 190 123 186C117 180 110 181 105 185C102 188 100 193 104 196C106 198 109 197 111 196C113 195 114 194 113 192ZM114 276C115 277 117 277 118 276C120 276 121 275 121 273C125 275 123 280 120 282C115 286 109 284 105 281C98 274 101 260 101 250C103 254 107 256 110 255C112 253 113 251 113 249C112 248 112 247 111 247C110 248 109 249 109 250C109 253 106 255 103 251C100 245 97 238 92 233C89 230 86 228 81 227C78 226 72 226 69 230C66 234 65 237 66 241C68 245 72 246 76 243C78 241 78 239 78 237C77 235 76 235 74 236C72 236 72 238 73 239C73 241 74 241 75 241C72 244 69 243 67 240C67 236 68 233 70 230C73 228 78 227 81 228C83 229 85 229 87 232C89 233 86 238 88 240C89 241 90 240 91 239C92 238 92 237 92 235C95 238 96 240 95 244C95 247 93 248 93 250C93 252 94 252 95 252C96 252 98 249 98 246C99 249 99 251 99 254C99 259 98 265 99 270C99 274 100 278 104 282C109 288 117 287 122 283C125 280 126 275 122 272C121 271 118 271 116 272C114 273 113 275 114 276ZM182 235C181 236 181 238 182 240C183 241 183 242 185 243C183 247 178 244 176 242C172 237 175 230 178 226C185 219 198 222 208 222C204 224 202 228 204 231C205 233 207 234 209 234C210 233 211 233 211 232C210 231 210 230 209 230C206 230 203 228 208 224C214 221 220 218 225 213C228 210 231 207 232 203C233 199 232 193 229 190C225 187 221 186 218 187C214 189 212 193 216 197C218 199 220 199 222 199C223 198 224 197 223 195C222 194 221 193 219 194C218 194 217 195 217 196C215 193 215 190 219 189C222 188 225 189 228 191C231 194 231 199 231 202C230 205 229 206 227 208C225 210 220 207 218 209C218 210 218 211 219 212C220 213 222 213 223 213C220 216 218 217 214 216C212 216 210 214 208 214C207 214 206 215 206 216C207 217 210 219 212 220C210 220 207 220 205 220C200 220 194 219 189 220C184 220 180 221 176 225C171 231 171 238 175 243C178 246 183 247 187 244C188 242 188 239 186 237C185 235 184 234 182 235ZM73 126C72 126 72 129 73 130C74 131 74 132 76 133C75 137 70 134 67 132C63 127 66 120 69 116C76 110 89 113 99 112C95 115 93 118 95 121C96 123 98 124 100 124C101 124 102 124 102 122C101 121 101 121 99 121C97 121 94 118 99 115C105 111 111 108 116 104C119 101 121 97 123 93C124 89 123 84 120 81C116 77 112 77 109 78C105 79 103 84 106 87C109 90 111 90 113 89C114 88 114 87 114 85C113 84 111 84 110 84C109 85 108 85 108 86C105 84 106 80 110 79C113 78 116 80 119 82C121 84 122 89 121 92C121 95 120 97 118 99C116 101 111 98 109 100C108 101 109 101 110 102C111 103 112 103 114 103C111 106 109 108 105 107C103 106 101 104 99 104C97 104 97 106 97 107C98 108 101 109 103 110C101 110 98 111 96 110C91 110 85 110 80 110C75 110 71 112 67 115C62 121 62 129 66 133C69 136 74 138 78 134C79 132 79 129 78 127C76 125 75 125 73 126ZM158 124C159 123 159 121 158 120C157 119 156 117 155 117C156 113 161 115 164 118C168 123 165 129 162 133C155 140 141 137 132 137C136 135 138 131 136 129C135 126 133 125 131 125C129 126 129 126 129 127C129 128 130 129 131 129C134 129 137 132 132 135C126 138 120 141 115 146C112 149 110 152 108 156C107 160 108 166 111 169C115 172 119 173 122 172C126 170 128 166 124 162C122 160 120 160 118 160C117 161 116 162 117 164C118 165 119 166 121 165C122 165 123 164 123 163C125 166 125 169 121 170C118 171 115 170 112 168C109 165 109 160 109 157C110 154 111 153 113 151C115 149 120 152 122 150C122 149 122 148 121 147C120 146 118 146 117 146C120 143 122 142 126 143C128 143 130 145 132 145C133 145 134 144 134 143C133 142 130 140 128 140C130 139 133 139 135 139C140 139 146 140 151 139C156 139 160 138 164 134C169 129 168 121 165 116C162 113 156 112 153 116C152 117 152 120 153 122C155 124 156 125 158 124ZM227 167C228 168 231 168 232 167C233 167 234 166 235 164C239 166 236 171 234 173C229 177 222 175 218 171C211 165 215 151 214 141C217 145 220 147 223 146C225 145 226 142 226 141C226 139 225 138 224 139C223 139 222 140 222 141C222 144 220 146 217 142C213 136 210 130 205 124C202 121 199 119 195 118C191 117 185 117 182 121C179 125 178 128 180 132C181 136 186 137 189 134C191 132 192 130 191 128C190 127 189 126 187 127C186 127 185 129 186 131C186 132 187 132 188 132C186 135 182 134 181 131C180 127 181 124 184 121C186 119 191 119 194 119C197 120 198 121 200 123C202 125 199 129 201 131C202 132 203 132 204 131C205 129 205 128 205 126C208 129 209 132 209 135C208 138 206 140 206 141C206 143 207 143 209 143C209 143 211 140 212 138C212 140 212 142 212 145C212 150 211 156 212 161C212 165 213 169 217 173C223 179 231 178 235 174C238 171 240 166 236 163C234 162 231 162 229 163C227 164 226 166 227 167ZM226 83C225 82 223 82 221 83C220 83 219 84 218 86C214 84 217 79 219 77C224 73 231 75 235 79C242 85 239 99 239 109C236 105 233 103 230 104C228 106 227 108 227 110C227 111 228 112 229 112C230 111 231 110 231 109C231 106 233 104 237 109C240 114 243 121 248 126C251 129 254 131 258 133C262 134 268 133 271 129C274 126 275 122 274 118C272 115 268 113 264 116C262 118 262 121 262 122C263 124 264 124 266 123C267 123 268 121 267 120C267 118 266 118 265 118C267 115 271 116 272 119C273 123 272 126 270 129C267 131 262 132 259 131C256 130 255 130 252 127C251 126 254 121 252 119C251 118 250 119 249 120C248 121 248 122 248 124C245 121 244 119 245 115C245 113 247 111 247 109C247 107 246 107 245 107C244 108 242 110 241 113C241 111 241 108 241 106C241 100 242 95 241 89C241 85 240 81 236 77C230 71 223 72 218 76C215 79 213 84 217 87C219 89 222 89 224 87C226 86 227 85 226 83Z" fill="#BF9000" stroke="none"/>
                    <path d="M221 230L228 230L228 237L221 237ZM206 245L213 245L213 252L206 252ZM235 215L243 215L243 223L235 223ZM110 230L118 230L118 238L110 238ZM125 245L132 245L132 252L125 252ZM95 215L103 215L103 223L95 223ZM222 122L229 122L229 129L222 129ZM237 136L244 136L244 144L237 144ZM208 107L215 107L215 114L208 114ZM112 122L119 122L119 129L112 129ZM127 107L134 107L134 114L127 114ZM97 136L104 136L104 144L97 144Z" fill="#2F5597" stroke="none"/>    
                </symbol>
                <symbol id="background0b">
                    <path d="M283 67L217 67L171 22L124 68L59 68L59 133L13 179L58 225C59 247 59 270 59 292L124 292L171 338L218 292L283 292C283 270 283 248 283 226L328 179L282 133C282 111 282 90 283 67Z" fill="#203864FF" stroke="none"/>
                    <path d="M171 163C180 163 188 171 188 180C188 189 180 197 171 197C162 197 154 189 154 180C154 171 162 163 171 163Z" fill="#FFD966FF" stroke="none"/>
                    <path d="M174 161C172 161 169 161 167 161L164 146C163 141 166 138 170 138C174 138 178 142 177 146L174 161ZM183 165C181 164 179 162 177 162L182 147C183 142 188 141 191 143C194 145 197 150 194 154L183 165ZM189 173C188 171 187 169 185 167L197 157C200 153 205 155 207 158C209 161 208 167 204 168L189 173ZM189 183C190 180 190 178 189 176L205 172C209 171 213 175 213 179C213 182 209 187 205 186L189 183ZM186 192C187 190 188 188 189 185L204 190C209 192 210 197 208 200C206 203 201 205 197 202L186 192ZM178 198C180 197 182 196 184 194L194 206C198 209 196 214 193 216C189 217 184 217 182 212L178 198ZM168 199C170 199 172 199 175 198L178 214C179 219 175 222 172 222C168 222 163 218 165 214L168 199ZM159 195C161 196 163 198 165 198L160 213C159 218 154 219 151 217C148 215 145 210 149 206L159 195ZM153 187C154 189 155 191 157 193L145 203C141 207 137 205 135 202C133 199 134 193 138 191L153 187ZM152 177C152 180 152 182 152 184L137 188C132 189 129 185 129 181C129 178 133 173 137 174L152 177ZM156 168C155 170 153 172 153 174L138 170C133 168 132 163 134 160C136 157 141 155 145 158L156 168ZM164 162C162 163 160 164 158 166L148 154C145 151 146 146 149 144C152 142 158 143 160 148L164 162Z" fill="#FFFFFF" stroke="none"/>
                    <path d="M244 97C239 98 235 104 234 110C235 114 238 123 247 123C252 123 256 121 259 119C257 131 265 115 267 114C270 110 275 103 274 96C273 83 257 75 244 75C236 75 230 77 225 79C219 81 217 83 210 84C206 76 199 81 195 75C196 78 192 79 195 83C191 84 186 83 182 82C185 84 201 90 211 87C208 90 201 95 199 98C214 88 229 82 244 82C255 82 260 87 263 90C259 88 254 86 253 87C251 88 249 89 252 91C254 92 256 92 256 89C258 90 265 92 265 97C265 104 258 116 247 117C243 117 239 113 239 109C238 107 239 105 239 104C241 108 245 108 247 105C249 101 248 95 244 97ZM242 90C239 92 227 98 220 98C225 97 238 92 240 90C225 96 211 89 205 104C197 105 199 118 186 128C198 127 202 107 212 107C220 107 216 118 226 120C219 123 212 124 205 126C215 128 230 119 235 133C237 122 226 117 225 109C225 101 237 98 242 90ZM257 207C256 195 263 185 272 176C269 185 271 190 274 194C278 197 286 197 293 191C306 192 298 176 304 167C295 171 295 193 285 193C275 193 272 180 276 173C278 168 286 167 289 168C282 172 290 174 293 170C297 163 279 170 268 163C272 170 266 177 263 179C260 182 250 187 242 188C217 191 225 170 234 166C234 173 243 169 249 174C243 166 253 155 232 162C226 167 218 180 222 187C226 195 243 201 248 200C253 197 242 193 244 198C240 197 236 195 239 193C246 192 253 191 259 186C256 192 253 201 257 207ZM255 176C263 169 265 166 256 151C266 161 272 157 280 161C278 158 277 158 275 157C270 156 261 153 258 146C262 152 269 155 275 156C268 151 268 145 262 140C266 136 274 124 272 114C271 127 261 135 254 139C259 134 260 129 253 132C253 128 251 125 245 131C248 135 240 146 235 142C231 138 232 135 224 129C221 128 215 131 217 135C217 135 218 137 220 137C217 134 221 128 225 133C227 135 231 143 233 146C223 150 231 157 236 153C234 153 232 153 233 151C235 141 239 160 249 154C252 151 244 147 246 153C237 150 243 143 248 147C258 156 259 167 255 176ZM251 251C250 246 244 241 238 241C233 241 225 245 225 254C225 259 226 263 229 266C216 264 232 272 234 273C238 276 244 282 251 281C265 280 273 263 273 251C273 243 271 237 268 232C267 226 264 224 264 216C272 212 267 206 272 202C269 203 268 199 265 202C264 198 265 193 266 189C264 192 258 208 260 218C258 214 253 208 249 206C260 221 265 235 266 250C266 262 261 267 257 270C260 266 261 261 261 260C260 258 259 256 257 259C256 260 255 262 259 262C258 265 256 272 251 272C244 272 231 265 231 254C230 250 235 246 238 245C241 245 242 245 244 246C240 247 240 252 243 253C246 255 252 255 251 251ZM258 249C256 246 249 233 250 226C250 232 255 244 257 247C252 231 258 218 243 211C242 203 229 205 219 193C220 205 241 209 241 219C241 227 230 223 227 232C225 226 224 219 222 212C219 222 229 237 214 242C226 244 231 233 238 232C247 231 250 244 258 249ZM141 264C153 262 163 269 172 279C163 276 158 278 154 281C150 285 151 292 156 300C156 313 172 305 180 310C177 301 155 301 155 291C155 282 168 279 175 283C179 285 181 293 179 296C176 289 173 297 178 300C185 304 177 285 184 274C177 278 171 273 169 270C165 267 160 256 159 248C156 223 177 232 181 241C175 241 178 250 173 256C181 250 192 260 186 239C180 232 168 225 160 229C152 233 146 250 148 254C151 259 155 249 150 251C150 247 153 243 155 245C156 252 157 260 161 266C155 262 147 260 141 264ZM172 261C179 270 182 272 197 263C187 273 190 279 187 287C189 285 189 284 190 282C192 277 195 268 202 265C196 268 193 276 191 282C196 275 203 275 207 269C211 273 223 281 234 279C220 277 213 268 209 261C213 265 218 267 215 260C220 260 222 258 216 252C213 255 201 247 205 242C210 238 213 239 218 230C219 228 217 222 213 224C213 223 211 225 211 226C214 223 219 228 215 232C213 233 204 238 201 240C198 230 191 238 195 243C195 241 195 239 197 239C206 241 187 245 194 256C196 258 200 251 195 253C197 243 205 250 200 255C192 264 181 265 172 261ZM97 260C102 258 106 252 107 247C106 242 103 233 94 233C89 234 85 235 82 237C84 225 76 241 74 242C71 246 66 253 66 260C67 273 84 281 97 281C105 281 111 279 116 277C122 275 124 273 131 273C135 280 141 276 146 281C145 278 149 277 145 273C150 272 154 274 159 275C156 272 140 266 129 269C133 266 140 261 142 258C127 268 112 274 97 274C86 274 80 270 78 266C82 268 86 270 88 269C90 269 92 267 89 265C87 265 85 264 85 267C83 266 76 264 76 260C75 253 83 240 94 239C98 239 102 243 102 247C102 249 102 251 102 253C100 248 96 249 94 251C92 255 93 261 97 260ZM99 266C102 264 114 258 122 259C116 259 104 264 101 266C117 260 130 267 136 252C144 251 142 238 155 228C143 229 139 250 129 249C121 249 125 238 116 236C122 233 129 232 136 230C126 228 111 238 106 223C104 234 115 239 116 247C116 255 104 259 99 266ZM84 149C85 161 78 171 69 180C72 171 70 166 66 163C63 159 55 159 48 165C35 164 43 180 37 189C46 185 46 164 56 164C66 163 69 176 65 183C63 188 55 189 52 188C59 184 51 182 48 186C44 193 62 186 73 193C69 186 75 180 78 177C81 174 91 169 99 168C124 165 115 186 107 190C107 183 98 187 92 182C98 190 88 201 109 194C115 189 123 177 118 169C115 161 98 155 93 157C88 160 99 163 97 158C101 159 105 161 102 163C95 164 88 165 82 170C85 164 88 155 84 149ZM86 181C78 187 76 191 85 205C75 195 69 199 61 195C62 198 64 198 66 199C71 200 80 203 83 211C79 204 72 201 66 200C73 205 73 211 79 216C75 220 67 232 69 242C70 229 80 221 86 217C82 222 81 227 88 224C88 229 90 231 95 225C93 221 101 210 106 214C110 218 109 221 117 227C120 228 125 225 124 222C124 221 123 219 121 220C124 223 120 228 116 223C114 221 110 213 108 210C118 206 110 200 105 203C107 203 109 203 108 205C106 215 102 196 92 202C89 205 96 209 95 203C104 206 98 213 93 209C83 200 82 189 86 181ZM90 106C91 111 97 115 103 115C108 115 116 111 116 102C116 97 115 94 112 90C125 92 109 84 107 83C103 80 97 74 90 75C76 76 68 93 68 105C68 114 70 119 73 125C74 130 77 132 77 140C69 144 74 150 68 154C72 154 73 157 76 154C77 158 76 163 75 168C77 164 83 148 80 138C83 142 88 148 91 151C81 135 76 121 75 106C75 95 80 89 83 86C81 90 80 95 80 97C81 98 82 100 84 97C85 96 85 94 82 94C83 92 85 85 90 84C97 84 109 91 110 102C111 106 106 110 103 111C100 111 99 111 97 110C101 109 101 105 98 103C95 101 89 101 90 106ZM83 108C85 111 92 123 91 130C91 124 86 112 84 110C89 125 83 138 97 145C98 153 112 151 122 164C120 151 100 147 100 138C100 129 111 134 113 124C116 131 117 137 119 144C122 134 112 119 127 114C115 112 110 123 103 124C94 125 91 113 83 108ZM200 93C188 94 178 87 169 78C178 80 183 79 187 75C190 71 190 64 185 56C185 43 169 52 161 46C164 55 186 55 186 65C186 74 173 77 166 74C162 71 160 63 161 61C165 67 168 59 163 56C156 52 164 71 157 82C164 78 170 83 172 86C176 90 181 100 182 108C184 133 164 124 159 115C166 115 163 106 167 100C160 106 149 96 155 118C161 124 173 131 181 127C189 123 195 106 193 102C190 97 186 108 191 105C190 109 188 113 186 111C185 104 184 96 180 90C186 94 194 96 200 93ZM169 95C162 86 159 84 144 93C154 83 151 78 154 70C151 71 152 72 151 74C149 79 146 88 139 92C145 88 148 80 150 74C145 81 138 81 134 87C130 83 118 75 107 78C121 79 128 88 132 95C128 91 123 89 126 96C121 96 119 98 125 104C128 101 140 109 136 114C131 118 128 117 123 126C121 128 124 134 128 132C128 133 130 131 130 130C127 133 121 129 126 124C128 123 137 118 140 116C143 126 150 118 146 113C146 115 146 117 144 117C135 115 153 111 147 100C144 98 141 105 146 103C144 113 136 106 140 101C149 92 160 91 169 95Z" fill="#8FAADC" stroke="none"/>    
                </symbol>
                <g id="background0c">
                    <use href="#background0a" x="-102" y="-114"/>
                    <use href="#background0b" x="120" y="-115"/>
                    <use href="#background0b" x="-104" y="110"/>
                    <use href="#background0a" x="121" y="109"/>
                    <animateTransform attributeName="transform" attributeType="XML" type="rotate" values="-180 179 177;180 179 177" dur="60s" repeatCount="indefinite" />
                </g>
                <g id="background0d" clip-path="url(#background0clip)">
                    <use href="#background0c"/>
                </g>
                <g id="background0e">
                    <use href="#background0d"/>
                    <use href="#background0d" transform="scale(1, -1)" transform-origin="179 177"/>
                </g>
                <g id="background0f">
                    <use href="#background0e"/>
                    <use href="#background0e" transform="rotate(120)" transform-origin="179 177"/>
                    <use href="#background0e" transform="rotate(240)" transform-origin="179 177"/>
                    <use href="#background0e" transform="rotate(120)" transform-origin="179 177" x="-300" y="-173"/>
                    <use href="#background0e" transform="rotate(240)" transform-origin="179 177" x="-300" y="173"/>
                </g>
                <g id="background0">
                    <use href="#background0f" x="-78" y="-5"/>
                    <use href="#background0f" x="-78" y="341"/>
                    <use href="#background0f" x="-78" y="687"/>
                </g>
                <clipPath id="background1clip">
                    <path d="M0 0L200 0L200 1000L0 1000Z" fill="white"/>
                </clipPath>
                <pattern id="background1a" x="0" y="0" width="16" height="10" patternUnits="userSpaceOnUse">
                    <circle cx="0" cy="0" r="4" fill="#FFFFFFAA"/>
                    <circle cx="0" cy="10" r="4" fill="#FFFFFFAA"/>
                    <circle cx="8" cy="5" r="4" fill="#FFFFFFAA"/>
                    <circle cx="16" cy="0" r="4" fill="#FFFFFFAA"/>
                    <circle cx="16" cy="10" r="4" fill="#FFFFFFAA"/>
                </pattern>
                <g id="background1b">
                    <path d="M193 567C203 552 210 536 206 526C282 526 307 519 357 502C398 486 433 451 470 426C480 419 507 452 499 462C465 498 434 532 383 548C312 566 268 559 193 567ZM142 162L151 177L167 184L151 203C152 223 146 243 137 260C143 291 179 306 211 301C241 297 258 255 245 239C227 220 200 188 192 155C177 163 161 163 142 162ZM144 203C145 223 140 243 132 259C126 301 116 343 102 385L77 380C85 330 92 279 84 226L92 195L109 192L114 202L144 203ZM368 372L368 358L403 352L410 336L442 331L452 317L478 314L492 297C567 295 639 296 713 318C690 345 665 337 590 340L604 413C576 418 548 419 520 417L523 340L368 372ZM671 365C675 394 680 425 672 452C653 491 634 523 598 549L616 569C659 534 693 512 706 466C711 433 706 400 698 369C695 363 670 360 671 365ZM827 748L818 716L776 716L780 747C794 756 811 756 827 748ZM811 678L805 655L765 664L770 693L811 678ZM800 631L798 606L765 615L768 636L800 631Z" fill="url(#background1a)" stroke="none"/>
			        <path d="M162 143C161 108 97 123 74 109C68 105 65 100 65 89C60 110 59 121 69 132C90 150 162 162 162 143ZM165 110C164 81 103 93 80 81C75 78 72 74 72 65C68 82 66 92 76 100C96 115 165 125 165 110ZM125 183C110 163 87 154 63 149L64 168L82 165L96 170L88 172L83 166L78 171L67 173L70 178L80 176L83 170L85 176L80 186L79 196L73 188L67 212C73 209 79 207 82 216L90 191L110 187L116 197L129 197L125 183ZM186 42L189 18C190 11 181 9 180 17L177 39L186 42ZM175 38L177 14C178 8 169 6 168 14L166 36L175 38ZM162 34L163 12C164 6 152 3 150 11L149 32L162 34ZM144 31L146 11C147 4 134 2 133 10L131 30L144 31ZM128 31L129 11C130 4 118 2 116 10L115 31L128 31ZM110 32L111 12C112 6 103 3 101 11L100 33L110 32ZM97 33L98 14C99 7 91 5 89 13L89 36L97 33ZM86 37L87 17C87 11 81 8 80 16L79 39L86 37ZM184 65L184 50C151 36 115 38 80 46L80 63C109 55 148 52 184 65ZM135 187C126 175 122 161 108 152C125 157 138 165 147 182L159 184L147 200L134 199L144 195L151 186L143 185L135 187ZM121 514L188 515C195 515 195 498 187 498L122 497L121 514ZM123 492L192 494C200 493 199 477 191 477L126 475L123 492ZM127 471L197 472C205 472 204 455 196 455L130 454L127 471ZM134 445L204 447C212 446 211 430 203 430L139 428L134 445ZM142 422L212 423C220 423 219 407 211 407L148 405L142 422ZM153 399L221 400C229 400 229 383 220 383L161 382L153 399ZM167 373L235 375C243 375 242 358 234 358L177 356L167 373ZM184 352L250 353C258 353 257 336 249 336L196 335L184 352ZM206 330L273 331C280 331 280 314 271 314L222 312L206 330ZM233 307L302 309C310 309 309 292 301 292L248 292L233 307ZM257 285L326 286C333 286 333 270 324 270L277 269L257 285ZM287 265L354 266C362 266 362 249 353 249L308 248L287 265ZM320 242L392 244C400 244 400 227 391 227L339 226L320 242ZM343 221L435 222C443 222 443 205 434 205L358 203L343 221ZM366 195L481 197C489 197 488 180 480 180L379 179L366 195ZM387 173L533 169C541 168 539 151 531 152L404 157L387 173ZM413 147L585 134C593 133 591 116 582 117L432 130L413 147ZM442 124L598 105C606 104 603 88 595 89L464 104L442 124ZM471 96L604 75C611 73 607 57 599 59L474 79L471 96ZM473 70L600 47C608 46 604 29 596 31L470 55C472 62 472 62 473 70ZM198 515L265 516C273 516 272 499 264 499L200 498L198 515ZM206 495L276 496C284 496 283 479 275 479L208 478L206 495ZM212 471L284 472C292 472 292 455 283 455L214 453L212 471ZM221 443L294 445C302 445 301 428 292 428L223 426L221 443ZM236 421L312 422C320 422 319 405 310 405L238 404L236 421ZM250 397L330 398C339 398 339 381 329 381L252 380L250 397ZM270 370L353 372C363 372 362 355 352 355L272 353L270 370ZM299 345L394 346C405 346 404 329 393 329L302 328L299 345ZM329 323L433 324C444 324 443 307 431 307L332 306L329 323ZM359 301L472 308C485 309 485 292 471 291L363 284L359 301ZM394 280L519 290C533 291 533 274 518 273L398 263L394 280ZM423 263L594 276C613 277 613 260 593 259L428 246L423 263ZM461 243L664 255C687 256 686 239 662 238L466 226L461 243ZM495 224L715 233C740 234 738 217 712 216L501 207L495 224ZM520 203L759 209C785 209 784 192 755 192L526 186L520 203ZM558 181L779 182C803 182 801 165 775 165L563 163L558 181ZM585 155L791 157C814 156 812 140 787 140L590 138L585 155ZM608 124L799 125C820 125 818 108 795 109L612 107L608 124ZM614 93L803 94C824 94 822 77 799 77L618 76L614 93ZM614 62L797 63C817 63 816 46 794 46L618 45L614 62ZM190 150C180 154 170 156 160 157C170 147 167 133 161 125C170 115 172 100 161 91C141 79 105 86 81 76L80 68C116 61 145 61 183 71L190 150ZM139 283C156 305 175 311 205 313C148 379 126 414 113 522C138 522 164 518 188 523C205 529 197 551 189 571L135 695L135 719L123 732L124 765L105 758L102 784C67 788 34 790 0 778C37 755 72 735 91 697L96 624C107 602 111 577 103 555C86 551 78 536 76 517C73 478 84 432 95 390L105 392C122 357 133 322 139 283ZM799 632C798 639 799 647 803 654L769 663L771 635L799 632ZM818 716C811 705 808 691 811 679L770 693C774 700 777 707 776 717L818 716ZM796 605L785 500L781 428C781 383 756 348 714 326C684 345 683 343 617 346L663 361C681 355 693 356 704 367C734 372 754 402 760 440C765 498 761 558 766 614L796 605ZM265 573C262 630 272 682 300 736C303 748 284 746 276 750C286 759 295 774 286 784C248 791 213 789 176 781L235 745C242 721 242 695 234 674C219 665 207 642 208 624L189 587L194 572C216 570 242 565 265 573ZM282 570C352 575 422 574 491 548C508 623 496 697 450 749L393 778C420 792 461 789 497 784C497 774 487 762 496 752C502 748 510 752 516 752C515 704 544 677 568 636C569 594 582 586 607 570L587 547C618 527 637 507 654 476C624 503 565 551 563 530L597 479C545 523 483 549 485 489C411 563 371 561 282 570ZM657 779C694 792 736 790 775 782L767 755L776 745L764 665C767 649 766 632 765 617L732 542L735 469C735 440 724 418 708 392C716 436 714 462 699 494C679 524 653 550 618 573C632 600 654 616 688 625L720 688C730 706 728 727 720 744L657 779ZM461 55C468 70 472 91 458 100C407 136 369 173 337 218C308 241 278 266 248 282C260 264 258 254 257 242C248 234 233 219 225 208C290 155 357 79 461 55Z" stroke="none" fill="#FFFFFFAA"/>
                    <animateMotion dur="20s" repeatCount="indefinite" path="m-320 0l280 0z"/>
                </g>
                <g id="background1c" clip-path="url(#background1clip">
                    <use href="#background1b"/>
                </g>
                <g id="background1">
                    <use href="#background1c"/>
                    <use href="#background1c" transform="scale(-1,1)" transform-origin="center"/>
                </g>
            </defs>
            <g id="backgroundgroup"><use href="#background0"/></g>
        </svg>
